<svg width="1280" height="720" viewBox="0 0 1280 720" fill="none" xmlns="http://www.w3.org/2000/svg">
  <defs>
    <linearGradient id="bg" x1="0" y1="0" x2="1280" y2="720" gradientUnits="userSpaceOnUse">
      <stop stop-color="#101A29"/>
      <stop offset="1" stop-color="#0A111C"/>
    </linearGradient>
    <linearGradient id="card" x1="0" y1="0" x2="1" y2="1">
      <stop stop-color="#1D2C40"/>
      <stop offset="1" stop-color="#132236"/>
    </linearGradient>
  </defs>
  <rect width="1280" height="720" fill="url(#bg)"/>
  <text x="44" y="52" fill="#EAF2FB" font-size="30" font-family="Segoe UI, Arial, sans-serif" font-weight="700">Retentia Dashboard Preview</text>
  <text x="44" y="78" fill="#9FB4CC" font-size="16" font-family="Segoe UI, Arial, sans-serif">Worker status, sync KPIs, execution visualizer, project explorer, and task filters.</text>

  <g transform="translate(36 108)">
    <rect width="1208" height="110" rx="12" fill="#0F1B2B" stroke="#2A3E59"/>
    <g transform="translate(22 18)">
      <rect width="170" height="74" rx="10" fill="url(#card)"/>
      <text x="14" y="28" fill="#9FB4CC" font-size="12" font-family="Segoe UI">Worker</text>
      <text x="14" y="56" fill="#EAF2FB" font-size="24" font-family="Segoe UI" font-weight="700">Running</text>
    </g>
    <g transform="translate(206 18)">
      <rect width="170" height="74" rx="10" fill="url(#card)"/>
      <text x="14" y="28" fill="#9FB4CC" font-size="12" font-family="Segoe UI">MCP</text>
      <text x="14" y="56" fill="#EAF2FB" font-size="24" font-family="Segoe UI" font-weight="700">Configured</text>
    </g>
    <g transform="translate(390 18)">
      <rect width="170" height="74" rx="10" fill="url(#card)"/>
      <text x="14" y="28" fill="#9FB4CC" font-size="12" font-family="Segoe UI">Tasks</text>
      <text x="14" y="56" fill="#EAF2FB" font-size="24" font-family="Segoe UI" font-weight="700">1,284</text>
    </g>
    <g transform="translate(574 18)">
      <rect width="170" height="74" rx="10" fill="url(#card)"/>
      <text x="14" y="28" fill="#9FB4CC" font-size="12" font-family="Segoe UI">Projects</text>
      <text x="14" y="56" fill="#EAF2FB" font-size="24" font-family="Segoe UI" font-weight="700">23</text>
    </g>
    <g transform="translate(758 18)">
      <rect width="170" height="74" rx="10" fill="url(#card)"/>
      <text x="14" y="28" fill="#9FB4CC" font-size="12" font-family="Segoe UI">Providers</text>
      <text x="14" y="56" fill="#EAF2FB" font-size="24" font-family="Segoe UI" font-weight="700">4</text>
    </g>
    <g transform="translate(942 18)">
      <rect width="244" height="74" rx="10" fill="url(#card)"/>
      <text x="14" y="28" fill="#9FB4CC" font-size="12" font-family="Segoe UI">Latest Activity</text>
      <text x="14" y="56" fill="#EAF2FB" font-size="20" font-family="Segoe UI" font-weight="700">2 min ago</text>
    </g>
  </g>

  <g transform="translate(36 234)">
    <rect width="592" height="206" rx="12" fill="#0F1B2B" stroke="#2A3E59"/>
    <text x="18" y="30" fill="#EAF2FB" font-size="18" font-family="Segoe UI" font-weight="600">Execution Visualizer</text>
    <text x="18" y="52" fill="#9FB4CC" font-size="12" font-family="Segoe UI">Provider and status distributions</text>
    <g transform="translate(18 74)">
      <rect width="556" height="18" rx="9" fill="#1C2A3D"/>
      <rect width="332" height="18" rx="9" fill="#34A853"/>
      <text x="8" y="13" fill="#D8E6F7" font-size="11" font-family="Segoe UI">Codex</text>
    </g>
    <g transform="translate(18 102)">
      <rect width="556" height="18" rx="9" fill="#1C2A3D"/>
      <rect width="178" height="18" rx="9" fill="#4A90E2"/>
      <text x="8" y="13" fill="#D8E6F7" font-size="11" font-family="Segoe UI">Claude</text>
    </g>
    <g transform="translate(18 130)">
      <rect width="556" height="18" rx="9" fill="#1C2A3D"/>
      <rect width="444" height="18" rx="9" fill="#26A69A"/>
      <text x="8" y="13" fill="#D8E6F7" font-size="11" font-family="Segoe UI">Completed</text>
    </g>
    <g transform="translate(18 158)">
      <rect width="556" height="18" rx="9" fill="#1C2A3D"/>
      <rect width="92" height="18" rx="9" fill="#E57373"/>
      <text x="8" y="13" fill="#D8E6F7" font-size="11" font-family="Segoe UI">Failed</text>
    </g>
  </g>

  <g transform="translate(652 234)">
    <rect width="592" height="206" rx="12" fill="#0F1B2B" stroke="#2A3E59"/>
    <text x="18" y="30" fill="#EAF2FB" font-size="18" font-family="Segoe UI" font-weight="600">Project Explorer</text>
    <text x="18" y="52" fill="#9FB4CC" font-size="12" font-family="Segoe UI">Task outcomes grouped by project</text>
    <g transform="translate(18 70)">
      <rect width="556" height="28" rx="6" fill="#122033"/>
      <text x="12" y="19" fill="#CDE0F4" font-size="12" font-family="Segoe UI">fred-client · 740 tasks · 728 completed · 12 failed</text>
    </g>
    <g transform="translate(18 104)">
      <rect width="556" height="28" rx="6" fill="#122033"/>
      <text x="12" y="19" fill="#CDE0F4" font-size="12" font-family="Segoe UI">retentia · 315 tasks · 315 completed · 0 failed</text>
    </g>
    <g transform="translate(18 138)">
      <rect width="556" height="28" rx="6" fill="#122033"/>
      <text x="12" y="19" fill="#CDE0F4" font-size="12" font-family="Segoe UI">ops-sandbox · 229 tasks · 223 completed · 6 failed</text>
    </g>
  </g>

  <g transform="translate(36 456)">
    <rect width="1208" height="228" rx="12" fill="#0F1B2B" stroke="#2A3E59"/>
    <text x="18" y="30" fill="#EAF2FB" font-size="18" font-family="Segoe UI" font-weight="600">Task Explorer</text>
    <text x="18" y="52" fill="#9FB4CC" font-size="12" font-family="Segoe UI">Filter by project, provider, agent, model, and status</text>
    <g transform="translate(18 70)">
      <rect width="220" height="30" rx="8" fill="#15263A"/><text x="10" y="20" fill="#C8D9EB" font-size="12" font-family="Segoe UI">project: all</text>
      <rect x="232" width="220" height="30" rx="8" fill="#15263A"/><text x="242" y="20" fill="#C8D9EB" font-size="12" font-family="Segoe UI">provider: codex</text>
      <rect x="464" width="220" height="30" rx="8" fill="#15263A"/><text x="474" y="20" fill="#C8D9EB" font-size="12" font-family="Segoe UI">agent: backend</text>
      <rect x="696" width="220" height="30" rx="8" fill="#15263A"/><text x="706" y="20" fill="#C8D9EB" font-size="12" font-family="Segoe UI">model: all</text>
      <rect x="928" width="220" height="30" rx="8" fill="#15263A"/><text x="938" y="20" fill="#C8D9EB" font-size="12" font-family="Segoe UI">status: completed</text>
    </g>
    <g transform="translate(18 114)">
      <rect width="1172" height="30" rx="6" fill="#122033"/>
      <text x="12" y="20" fill="#CDE0F4" font-size="12" font-family="Segoe UI">2026-03-02 12:09 · fred-client · codex · backend · completed · Fix reward state gating</text>
      <rect y="36" width="1172" height="30" rx="6" fill="#122033"/>
      <text x="12" y="56" fill="#CDE0F4" font-size="12" font-family="Segoe UI">2026-03-02 12:08 · retentia · claude · primary · completed · Add execution visualizer filters</text>
      <rect y="72" width="1172" height="30" rx="6" fill="#122033"/>
      <text x="12" y="92" fill="#CDE0F4" font-size="12" font-family="Segoe UI">2026-03-02 12:05 · retentia · codex · unassigned · completed · Sync README rebrand docs</text>
    </g>
  </g>
</svg>
